<svg width="1161" height="311" viewBox="0 0 1161 311" fill="none" xmlns="http://www.w3.org/2000/svg">
<g filter="url(#filter0_dd_1550_280)">
<path d="M62 24C59.7909 24 58 25.7909 58 28C58 30.2091 59.7909 32 62 32V24ZM1137 263L1097 239.906V286.094L1137 263ZM62 32H455.703V24H62V32ZM455.703 32C476.326 32 491.452 39.1298 501.43 49.5205C511.456 59.9612 516.519 73.94 516.519 88C516.519 102.06 511.456 116.039 501.43 126.479C491.452 136.87 476.326 144 455.703 144V152C478.29 152 495.572 144.13 507.2 132.021C518.78 119.961 524.519 103.94 524.519 88C524.519 72.06 518.78 56.0388 507.2 43.9795C495.572 31.8702 478.29 24 455.703 24V32ZM455.703 144C407.257 144 381.52 174.231 381.319 205.474C381.22 220.951 387.443 236.412 399.997 247.974C412.565 259.547 431.231 267 455.703 267V259C432.882 259 416.264 252.078 405.417 242.089C394.556 232.088 389.234 218.799 389.319 205.526C389.488 179.269 411.043 152 455.703 152V144ZM455.703 267H1101V259H455.703V267Z" fill="url(#paint0_linear_1550_280)"/>
</g>
<ellipse cx="62.5" cy="28" rx="15.5" ry="16" fill="#F53AF4"/>
<rect x="1" y="53" width="113" height="62" rx="7" fill="#292933"/>
<path d="M15.6117 71.78H23.0117V73.06H15.6117V71.78ZM15.7717 79H14.2917V65H23.8917V66.28H15.7717V79ZM30.5764 79.1C29.5631 79.1 28.6497 78.8733 27.8364 78.42C27.0364 77.9533 26.4031 77.32 25.9364 76.52C25.4697 75.7067 25.2364 74.78 25.2364 73.74C25.2364 72.6867 25.4697 71.76 25.9364 70.96C26.4031 70.16 27.0364 69.5333 27.8364 69.08C28.6364 68.6267 29.5497 68.4 30.5764 68.4C31.6164 68.4 32.5364 68.6267 33.3364 69.08C34.1497 69.5333 34.7831 70.16 35.2364 70.96C35.7031 71.76 35.9364 72.6867 35.9364 73.74C35.9364 74.78 35.7031 75.7067 35.2364 76.52C34.7831 77.32 34.1497 77.9533 33.3364 78.42C32.5231 78.8733 31.6031 79.1 30.5764 79.1ZM30.5764 77.84C31.3364 77.84 32.0097 77.6733 32.5964 77.34C33.1831 76.9933 33.6431 76.5133 33.9764 75.9C34.3231 75.2733 34.4964 74.5533 34.4964 73.74C34.4964 72.9133 34.3231 72.1933 33.9764 71.58C33.6431 70.9667 33.1831 70.4933 32.5964 70.16C32.0097 69.8133 31.3431 69.64 30.5964 69.64C29.8497 69.64 29.1831 69.8133 28.5964 70.16C28.0097 70.4933 27.5431 70.9667 27.1964 71.58C26.8497 72.1933 26.6764 72.9133 26.6764 73.74C26.6764 74.5533 26.8497 75.2733 27.1964 75.9C27.5431 76.5133 28.0097 76.9933 28.5964 77.34C29.1831 77.6733 29.8431 77.84 30.5764 77.84ZM43.1755 79.1C42.2821 79.1 41.5021 78.9333 40.8355 78.6C40.1688 78.2667 39.6488 77.7667 39.2755 77.1C38.9155 76.4333 38.7355 75.6 38.7355 74.6V68.5H40.1555V74.44C40.1555 75.56 40.4288 76.4067 40.9755 76.98C41.5355 77.54 42.3155 77.82 43.3155 77.82C44.0488 77.82 44.6821 77.6733 45.2155 77.38C45.7621 77.0733 46.1755 76.6333 46.4555 76.06C46.7488 75.4867 46.8955 74.8 46.8955 74V68.5H48.3155V79H46.9555V76.12L47.1755 76.64C46.8421 77.4133 46.3221 78.02 45.6155 78.46C44.9221 78.8867 44.1088 79.1 43.1755 79.1ZM57.633 68.4C58.4863 68.4 59.233 68.5667 59.873 68.9C60.5263 69.22 61.033 69.7133 61.393 70.38C61.7663 71.0467 61.953 71.8867 61.953 72.9V79H60.533V73.04C60.533 71.9333 60.253 71.1 59.693 70.54C59.1463 69.9667 58.373 69.68 57.373 69.68C56.6263 69.68 55.973 69.8333 55.413 70.14C54.8663 70.4333 54.4396 70.8667 54.133 71.44C53.8396 72 53.693 72.68 53.693 73.48V79H52.273V68.5H53.633V71.38L53.413 70.84C53.7463 70.08 54.2796 69.4867 55.013 69.06C55.7463 68.62 56.6196 68.4 57.633 68.4ZM69.9686 79.1C68.9686 79.1 68.0686 78.8733 67.2686 78.42C66.4819 77.9667 65.8619 77.34 65.4086 76.54C64.9553 75.7267 64.7286 74.7933 64.7286 73.74C64.7286 72.6733 64.9553 71.74 65.4086 70.94C65.8619 70.14 66.4819 69.52 67.2686 69.08C68.0686 68.6267 68.9686 68.4 69.9686 68.4C70.8886 68.4 71.7086 68.6067 72.4286 69.02C73.1619 69.4333 73.7419 70.04 74.1686 70.84C74.6086 71.6267 74.8286 72.5933 74.8286 73.74C74.8286 74.8733 74.6153 75.84 74.1886 76.64C73.7619 77.44 73.1819 78.0533 72.4486 78.48C71.7286 78.8933 70.9019 79.1 69.9686 79.1ZM70.0686 77.84C70.8153 77.84 71.4819 77.6733 72.0686 77.34C72.6686 76.9933 73.1353 76.5133 73.4686 75.9C73.8153 75.2733 73.9886 74.5533 73.9886 73.74C73.9886 72.9133 73.8153 72.1933 73.4686 71.58C73.1353 70.9667 72.6686 70.4933 72.0686 70.16C71.4819 69.8133 70.8153 69.64 70.0686 69.64C69.3353 69.64 68.6753 69.8133 68.0886 70.16C67.5019 70.4933 67.0353 70.9667 66.6886 71.58C66.3419 72.1933 66.1686 72.9133 66.1686 73.74C66.1686 74.5533 66.3419 75.2733 66.6886 75.9C67.0353 76.5133 67.5019 76.9933 68.0886 77.34C68.6753 77.6733 69.3353 77.84 70.0686 77.84ZM74.0286 79V75.84L74.1686 73.72L73.9686 71.6V64.16H75.3886V79H74.0286ZM83.8033 79.1C82.7099 79.1 81.7499 78.8733 80.9233 78.42C80.0966 77.9533 79.4499 77.32 78.9833 76.52C78.5166 75.7067 78.2833 74.78 78.2833 73.74C78.2833 72.7 78.5033 71.78 78.9433 70.98C79.3966 70.18 80.0099 69.5533 80.7833 69.1C81.5699 68.6333 82.4499 68.4 83.4233 68.4C84.4099 68.4 85.2833 68.6267 86.0433 69.08C86.8166 69.52 87.4233 70.1467 87.8633 70.96C88.3033 71.76 88.5233 72.6867 88.5233 73.74C88.5233 73.8067 88.5166 73.88 88.5033 73.96C88.5033 74.0267 88.5033 74.1 88.5033 74.18H79.3633V73.12H87.7433L87.1833 73.54C87.1833 72.78 87.0166 72.1067 86.6833 71.52C86.3633 70.92 85.9233 70.4533 85.3633 70.12C84.8033 69.7867 84.1566 69.62 83.4233 69.62C82.7033 69.62 82.0566 69.7867 81.4833 70.12C80.9099 70.4533 80.4633 70.92 80.1433 71.52C79.8233 72.12 79.6633 72.8067 79.6633 73.58V73.8C79.6633 74.6 79.8366 75.3067 80.1833 75.92C80.5433 76.52 81.0366 76.9933 81.6633 77.34C82.3033 77.6733 83.0299 77.84 83.8433 77.84C84.4833 77.84 85.0766 77.7267 85.6233 77.5C86.1833 77.2733 86.6633 76.9267 87.0633 76.46L87.8633 77.38C87.3966 77.94 86.8099 78.3667 86.1033 78.66C85.4099 78.9533 84.6433 79.1 83.8033 79.1ZM95.5936 79.1C94.5936 79.1 93.6936 78.8733 92.8936 78.42C92.1069 77.9667 91.4869 77.34 91.0336 76.54C90.5803 75.7267 90.3536 74.7933 90.3536 73.74C90.3536 72.6733 90.5803 71.74 91.0336 70.94C91.4869 70.14 92.1069 69.52 92.8936 69.08C93.6936 68.6267 94.5936 68.4 95.5936 68.4C96.5136 68.4 97.3336 68.6067 98.0536 69.02C98.7869 69.4333 99.3669 70.04 99.7936 70.84C100.234 71.6267 100.454 72.5933 100.454 73.74C100.454 74.8733 100.24 75.84 99.8136 76.64C99.3869 77.44 98.8069 78.0533 98.0736 78.48C97.3536 78.8933 96.5269 79.1 95.5936 79.1ZM95.6936 77.84C96.4403 77.84 97.1069 77.6733 97.6936 77.34C98.2936 76.9933 98.7603 76.5133 99.0936 75.9C99.4403 75.2733 99.6136 74.5533 99.6136 73.74C99.6136 72.9133 99.4403 72.1933 99.0936 71.58C98.7603 70.9667 98.2936 70.4933 97.6936 70.16C97.1069 69.8133 96.4403 69.64 95.6936 69.64C94.9603 69.64 94.3003 69.8133 93.7136 70.16C93.1269 70.4933 92.6603 70.9667 92.3136 71.58C91.9669 72.1933 91.7936 72.9133 91.7936 73.74C91.7936 74.5533 91.9669 75.2733 92.3136 75.9C92.6603 76.5133 93.1269 76.9933 93.7136 77.34C94.3003 77.6733 94.9603 77.84 95.6936 77.84ZM99.6536 79V75.84L99.7936 73.72L99.5936 71.6V64.16H101.014V79H99.6536ZM23.5563 103.12C22.5029 103.12 21.5229 102.947 20.6163 102.6C19.7229 102.24 18.9429 101.74 18.2763 101.1C17.6229 100.447 17.1096 99.6933 16.7363 98.84C16.3763 97.9733 16.1963 97.0267 16.1963 96C16.1963 94.9733 16.3763 94.0333 16.7363 93.18C17.1096 92.3133 17.6229 91.56 18.2763 90.92C18.9429 90.2667 19.7229 89.7667 20.6163 89.42C21.5096 89.06 22.4896 88.88 23.5563 88.88C24.6096 88.88 25.5829 89.06 26.4763 89.42C27.3696 89.7667 28.1429 90.26 28.7963 90.9C29.4629 91.54 29.9763 92.2933 30.3363 93.16C30.7096 94.0267 30.8963 94.9733 30.8963 96C30.8963 97.0267 30.7096 97.9733 30.3363 98.84C29.9763 99.7067 29.4629 100.46 28.7963 101.1C28.1429 101.74 27.3696 102.24 26.4763 102.6C25.5829 102.947 24.6096 103.12 23.5563 103.12ZM23.5563 101.8C24.3963 101.8 25.1696 101.66 25.8763 101.38C26.5963 101.087 27.2163 100.68 27.7363 100.16C28.2696 99.6267 28.6829 99.0133 28.9763 98.32C29.2696 97.6133 29.4163 96.84 29.4163 96C29.4163 95.16 29.2696 94.3933 28.9763 93.7C28.6829 92.9933 28.2696 92.38 27.7363 91.86C27.2163 91.3267 26.5963 90.92 25.8763 90.64C25.1696 90.3467 24.3963 90.2 23.5563 90.2C22.7163 90.2 21.9363 90.3467 21.2163 90.64C20.4963 90.92 19.8696 91.3267 19.3363 91.86C18.8163 92.38 18.4029 92.9933 18.0962 93.7C17.8029 94.3933 17.6562 95.16 17.6562 96C17.6562 96.8267 17.8029 97.5933 18.0962 98.3C18.4029 99.0067 18.8163 99.6267 19.3363 100.16C19.8696 100.68 20.4963 101.087 21.2163 101.38C21.9363 101.66 22.7163 101.8 23.5563 101.8ZM38.2736 103.1C37.2336 103.1 36.3003 102.873 35.4736 102.42C34.6603 101.953 34.0203 101.32 33.5536 100.52C33.0869 99.7067 32.8536 98.78 32.8536 97.74C32.8536 96.6867 33.0869 95.76 33.5536 94.96C34.0203 94.16 34.6603 93.5333 35.4736 93.08C36.3003 92.6267 37.2336 92.4 38.2736 92.4C39.1669 92.4 39.9736 92.5733 40.6936 92.92C41.4136 93.2667 41.9803 93.7867 42.3936 94.48L41.3336 95.2C40.9736 94.6667 40.5269 94.2733 39.9936 94.02C39.4603 93.7667 38.8803 93.64 38.2536 93.64C37.5069 93.64 36.8336 93.8133 36.2336 94.16C35.6336 94.4933 35.1603 94.9667 34.8136 95.58C34.4669 96.1933 34.2936 96.9133 34.2936 97.74C34.2936 98.5667 34.4669 99.2867 34.8136 99.9C35.1603 100.513 35.6336 100.993 36.2336 101.34C36.8336 101.673 37.5069 101.84 38.2536 101.84C38.8803 101.84 39.4603 101.713 39.9936 101.46C40.5269 101.207 40.9736 100.82 41.3336 100.3L42.3936 101.02C41.9803 101.7 41.4136 102.22 40.6936 102.58C39.9736 102.927 39.1669 103.1 38.2736 103.1ZM48.6203 103.1C47.6336 103.1 46.8736 102.833 46.3403 102.3C45.807 101.767 45.5403 101.013 45.5403 100.04V90.18H46.9603V99.96C46.9603 100.573 47.1136 101.047 47.4203 101.38C47.7403 101.713 48.1936 101.88 48.7803 101.88C49.407 101.88 49.927 101.7 50.3403 101.34L50.8403 102.36C50.5603 102.613 50.2203 102.8 49.8203 102.92C49.4336 103.04 49.0336 103.1 48.6203 103.1ZM43.6603 93.68V92.5H50.1603V93.68H43.6603ZM57.4597 103V101.98L63.2797 96.28C63.813 95.76 64.213 95.3067 64.4797 94.92C64.7464 94.52 64.9264 94.1467 65.0197 93.8C65.113 93.4533 65.1597 93.1267 65.1597 92.82C65.1597 92.0067 64.8797 91.3667 64.3197 90.9C63.773 90.4333 62.9597 90.2 61.8797 90.2C61.053 90.2 60.3197 90.3267 59.6797 90.58C59.053 90.8333 58.513 91.2267 58.0597 91.76L57.0397 90.88C57.5864 90.24 58.2864 89.7467 59.1397 89.4C59.993 89.0533 60.9464 88.88 61.9997 88.88C62.9464 88.88 63.7664 89.0333 64.4597 89.34C65.153 89.6333 65.6864 90.0667 66.0597 90.64C66.4464 91.2133 66.6397 91.8867 66.6397 92.66C66.6397 93.1133 66.573 93.56 66.4397 94C66.3197 94.44 66.093 94.9067 65.7597 95.4C65.4397 95.88 64.9664 96.4267 64.3397 97.04L58.9997 102.28L58.5997 101.72H67.2797V103H57.4597ZM74.6278 103.12C73.5478 103.12 72.5878 102.84 71.7478 102.28C70.9078 101.707 70.2478 100.893 69.7678 99.84C69.2878 98.7733 69.0478 97.4933 69.0478 96C69.0478 94.5067 69.2878 93.2333 69.7678 92.18C70.2478 91.1133 70.9078 90.3 71.7478 89.74C72.5878 89.1667 73.5478 88.88 74.6278 88.88C75.7078 88.88 76.6678 89.1667 77.5078 89.74C78.3478 90.3 79.0078 91.1133 79.4878 92.18C79.9811 93.2333 80.2278 94.5067 80.2278 96C80.2278 97.4933 79.9811 98.7733 79.4878 99.84C79.0078 100.893 78.3478 101.707 77.5078 102.28C76.6678 102.84 75.7078 103.12 74.6278 103.12ZM74.6278 101.8C75.4545 101.8 76.1745 101.58 76.7878 101.14C77.4011 100.687 77.8811 100.033 78.2278 99.18C78.5745 98.3133 78.7478 97.2533 78.7478 96C78.7478 94.7467 78.5745 93.6933 78.2278 92.84C77.8811 91.9733 77.4011 91.32 76.7878 90.88C76.1745 90.4267 75.4545 90.2 74.6278 90.2C73.8278 90.2 73.1145 90.4267 72.4878 90.88C71.8611 91.32 71.3745 91.9733 71.0278 92.84C70.6811 93.6933 70.5078 94.7467 70.5078 96C70.5078 97.2533 70.6811 98.3133 71.0278 99.18C71.3745 100.033 71.8611 100.687 72.4878 101.14C73.1145 101.58 73.8278 101.8 74.6278 101.8ZM82.03 103V101.98L87.85 96.28C88.3833 95.76 88.7833 95.3067 89.05 94.92C89.3167 94.52 89.4967 94.1467 89.59 93.8C89.6833 93.4533 89.73 93.1267 89.73 92.82C89.73 92.0067 89.45 91.3667 88.89 90.9C88.3433 90.4333 87.53 90.2 86.45 90.2C85.6233 90.2 84.89 90.3267 84.25 90.58C83.6233 90.8333 83.0833 91.2267 82.63 91.76L81.61 90.88C82.1567 90.24 82.8567 89.7467 83.71 89.4C84.5633 89.0533 85.5167 88.88 86.57 88.88C87.5167 88.88 88.3367 89.0333 89.03 89.34C89.7233 89.6333 90.2567 90.0667 90.63 90.64C91.0167 91.2133 91.21 91.8867 91.21 92.66C91.21 93.1133 91.1433 93.56 91.01 94C90.89 94.44 90.6633 94.9067 90.33 95.4C90.01 95.88 89.5367 96.4267 88.91 97.04L83.57 102.28L83.17 101.72H91.85V103H82.03ZM96.0972 103V89.6L96.7372 90.28H92.7972V89H97.5372V103H96.0972Z" fill="white"/>
<rect x="1" y="53" width="113" height="62" rx="7" stroke="#F53AF4" stroke-width="2"/>
<defs>
<filter id="filter0_dd_1550_280" x="34" y="0" width="1127" height="310.094" filterUnits="userSpaceOnUse" color-interpolation-filters="sRGB">
<feFlood flood-opacity="0" result="BackgroundImageFix"/>
<feColorMatrix in="SourceAlpha" type="matrix" values="0 0 0 0 0 0 0 0 0 0 0 0 0 0 0 0 0 0 127 0" result="hardAlpha"/>
<feOffset dx="4" dy="4"/>
<feGaussianBlur stdDeviation="10"/>
<feComposite in2="hardAlpha" operator="out"/>
<feColorMatrix type="matrix" values="0 0 0 0 0.162162 0 0 0 0 0.162162 0 0 0 0 0.2 0 0 0 1 0"/>
<feBlend mode="normal" in2="BackgroundImageFix" result="effect1_dropShadow_1550_280"/>
<feColorMatrix in="SourceAlpha" type="matrix" values="0 0 0 0 0 0 0 0 0 0 0 0 0 0 0 0 0 0 127 0" result="hardAlpha"/>
<feOffset dx="-4" dy="-4"/>
<feGaussianBlur stdDeviation="10"/>
<feComposite in2="hardAlpha" operator="out"/>
<feColorMatrix type="matrix" values="0 0 0 0 0.162162 0 0 0 0 0.162162 0 0 0 0 0.2 0 0 0 1 0"/>
<feBlend mode="normal" in2="effect1_dropShadow_1550_280" result="effect2_dropShadow_1550_280"/>
<feBlend mode="normal" in="SourceGraphic" in2="effect2_dropShadow_1550_280" result="shape"/>
</filter>
<linearGradient id="paint0_linear_1550_280" x1="62" y1="145.5" x2="1136.52" y2="145.5" gradientUnits="userSpaceOnUse">
<stop stop-color="#F537F9"/>
<stop offset="1" stop-color="#F7BE2B"/>
</linearGradient>
</defs>
</svg>
